<?xml version="1.0" encoding="UTF-8"?>
<svg version="1.1" xmlns="http://www.w3.org/2000/svg" width="231" height="255">
<path d="M0 0 C76.23 0 152.46 0 231 0 C231 84.15 231 168.3 231 255 C154.77 255 78.54 255 0 255 C0 170.85 0 86.7 0 0 Z " fill="#FEFEFE" transform="translate(0,0)"/>
<path d="M0 0 C1.20785156 -0.00128906 2.41570312 -0.00257812 3.66015625 -0.00390625 C7.62749872 0.68174888 8.57468436 1.33912736 10.9375 4.5625 C11.3110309 7.48636474 11.4522467 10.02358656 11.3984375 12.94140625 C11.39706284 14.15412453 11.39706284 14.15412453 11.3956604 15.39134216 C11.38962946 17.09681079 11.37389853 18.80226907 11.34912109 20.50756836 C11.31257871 23.11937418 11.30810207 25.72976192 11.30859375 28.34179688 C11.2987634 30.00001227 11.28710676 31.65821806 11.2734375 33.31640625 C11.27121185 34.09770401 11.26898621 34.87900177 11.26669312 35.68397522 C11.19990433 39.49264896 11.09951381 41.31947928 8.9375 44.5625 C5.65858972 45.65547009 3.01375949 45.83483095 -0.4375 45.9375 C-1.55898437 45.98648438 -2.68046875 46.03546875 -3.8359375 46.0859375 C-8.15493047 45.38527762 -9.370853 43.97367951 -12.0625 40.5625 C-12.5626115 37.70148479 -12.76643544 35.4463515 -12.7265625 32.59375 C-12.73134613 31.83582153 -12.73612976 31.07789307 -12.74105835 30.29699707 C-12.74444946 28.70009273 -12.735302 27.10311822 -12.71435547 25.50634766 C-12.68757204 23.06905598 -12.71412307 20.63636808 -12.74609375 18.19921875 C-12.7427895 16.64321905 -12.73638295 15.08722221 -12.7265625 13.53125 C-12.73668365 12.80715942 -12.74680481 12.08306885 -12.75723267 11.33703613 C-12.66756632 7.44442795 -12.16850154 5.69719987 -9.73413086 2.60375977 C-6.30794225 -0.01401991 -4.27403171 -0.07770967 0 0 Z " fill="#4D89EF" transform="translate(167.0625,44.4375)"/>
<path d="M0 0 C1.20785156 -0.00128906 2.41570312 -0.00257812 3.66015625 -0.00390625 C7.59176299 0.67557286 8.54943118 1.41874149 10.9375 4.5625 C11.43920898 7.79882812 11.43920898 7.79882812 11.43359375 11.59375 C11.43504898 12.26668091 11.43650421 12.93961182 11.43800354 13.63293457 C11.436348 15.0517206 11.42482503 16.47052523 11.40405273 17.88916016 C11.37508967 20.05579217 11.38344949 22.21997624 11.39648438 24.38671875 C11.39024642 25.76824101 11.38185502 27.14975557 11.37109375 28.53125 C11.36134521 29.78357422 11.35159668 31.03589844 11.34155273 32.32617188 C10.91273882 35.7608288 10.45147807 37.21355016 7.9375 39.5625 C5.11436485 39.94230738 2.74785976 40.07750992 -0.0625 40 C-0.78695312 40.00708984 -1.51140625 40.01417969 -2.2578125 40.02148438 C-7.51547524 39.95843122 -7.51547524 39.95843122 -10 38.16015625 C-13.18018452 33.37818762 -12.36284063 27.8763263 -12.41259766 22.29614258 C-12.42913597 20.93724414 -12.45639921 19.57843195 -12.49462891 18.2199707 C-12.54959607 16.25525314 -12.56816889 14.28962475 -12.5859375 12.32421875 C-12.60575684 11.14819092 -12.62557617 9.97216309 -12.64599609 8.76049805 C-11.34873788 1.65054604 -6.64850745 -0.12088195 0 0 Z " fill="#4D89EF" transform="translate(167.0625,99.4375)"/>
<path d="M0 0 C1.96453125 0.03287109 1.96453125 0.03287109 3.96875 0.06640625 C5.2784375 0.06511719 6.588125 0.06382812 7.9375 0.0625 C12.05920768 0.72361462 12.99406394 1.3465472 15.46875 4.62890625 C15.98632812 7.86523438 15.98632812 7.86523438 16 11.66015625 C16.0038269 12.33308716 16.00765381 13.00601807 16.01159668 13.69934082 C16.0143113 15.11809795 16.00698134 16.53690552 15.99023438 17.95556641 C15.96881275 20.12255828 15.99004538 22.28623576 16.015625 24.453125 C16.01298164 25.83464271 16.00785647 27.21615835 16 28.59765625 C15.99548828 29.84998047 15.99097656 31.10230469 15.98632812 32.39257812 C15.37971556 36.18562348 14.53165846 37.37795261 11.46875 39.62890625 C8.19140625 40.1953125 8.19140625 40.1953125 4.53125 40.19140625 C3.32597656 40.21332031 2.12070312 40.23523438 0.87890625 40.2578125 C-3.49349944 39.45144673 -4.75984355 38.05622386 -7.53125 34.62890625 C-8.16235352 31.47851562 -8.16235352 31.47851562 -8.16015625 27.97265625 C-8.16208984 26.70292969 -8.16402344 25.43320313 -8.16601562 24.125 C-8.14216797 22.80628906 -8.11832031 21.48757812 -8.09375 20.12890625 C-8.10470703 18.81019531 -8.11566406 17.49148437 -8.12695312 16.1328125 C-8.05327512 6.45643511 -8.05327512 6.45643511 -5.71655273 2.75219727 C-3.53125 0.62890625 -3.53125 0.62890625 0 0 Z " fill="#E54E43" transform="translate(56.53125,134.37109375)"/>
<path d="M0 0 C1.31613281 -0.03996094 2.63226563 -0.07992187 3.98828125 -0.12109375 C7.6875 0.4375 7.6875 0.4375 10.6328125 2.2109375 C13.77867306 7.15101511 13.37603741 11.76700119 13.25 17.5 C13.26095703 18.58861328 13.27191406 19.67722656 13.28320312 20.79882812 C13.20920659 28.81511904 13.20920659 28.81511904 10.77709961 31.71655273 C7.2850554 34.59252185 4.86387196 34.70723921 0.375 34.875 C-1.32076172 34.96587891 -1.32076172 34.96587891 -3.05078125 35.05859375 C-6.61942871 34.37905489 -8.25545463 33.37415429 -10.40356445 30.41870117 C-12.24582279 26.40314211 -11.90333041 22.20733576 -11.75 17.875 C-11.74419922 16.94236328 -11.73839844 16.00972656 -11.73242188 15.04882812 C-11.56280134 5.52972377 -10.4070404 0.08928824 0 0 Z " fill="#F9BF1B" transform="translate(95.3125,107.5625)"/>
<path d="M0 0 C1.22847656 0.02449219 2.45695313 0.04898438 3.72265625 0.07421875 C6.9375 0.3125 6.9375 0.3125 9.9375 1.3125 C12.17060663 4.66215995 12.19396703 5.8001394 12.203125 9.71484375 C12.20699219 11.29749023 12.20699219 11.29749023 12.2109375 12.91210938 C12.20320313 14.01361328 12.19546875 15.11511719 12.1875 16.25 C12.19523437 17.34763672 12.20296875 18.44527344 12.2109375 19.57617188 C12.20835937 20.63255859 12.20578125 21.68894531 12.203125 22.77734375 C12.20086914 23.742771 12.19861328 24.70819824 12.19628906 25.70288086 C11.92784463 28.40986444 11.40627663 30.03783735 9.9375 32.3125 C6.93449703 33.81400148 3.85525628 33.61890091 0.5625 33.6875 C-0.44683594 33.74357422 -0.44683594 33.74357422 -1.4765625 33.80078125 C-4.84602225 33.8604764 -6.76275097 33.52941104 -9.5078125 31.54296875 C-11.91869059 26.5334306 -11.64071652 21.73493319 -11.5625 16.25 C-11.57796875 15.16138672 -11.5934375 14.07277344 -11.609375 12.95117188 C-11.60421875 11.90380859 -11.5990625 10.85644531 -11.59375 9.77734375 C-11.58923828 8.824646 -11.58472656 7.87194824 -11.58007812 6.89038086 C-10.27499447 0.39020242 -5.88507708 -0.17946082 0 0 Z " fill="#41AA5D" transform="translate(131.0625,140.6875)"/>
<path d="M0 0 C1.62841701 3.25683403 1.26795577 6.79958335 1.3125 10.375 C1.34150391 11.14328125 1.37050781 11.9115625 1.40039062 12.703125 C1.44104808 16.31851068 1.37681307 18.4017511 -0.58203125 21.51171875 C-3.851063 23.52383684 -6.18137334 23.49817733 -10 23.4375 C-11.8253125 23.43556641 -11.8253125 23.43556641 -13.6875 23.43359375 C-17.16064804 22.97897178 -18.57634747 22.47608732 -21 20 C-22.15448176 16.53655473 -22.20405092 13.71162274 -22.25 10.0625 C-22.27578125 8.83660156 -22.3015625 7.61070312 -22.328125 6.34765625 C-21.9793032 2.78884331 -21.5882556 1.41920287 -19 -1 C-13.41258306 -3.19547152 -5.18481089 -3.01053536 0 0 Z " fill="#4E89EF" transform="translate(177,151)"/>
<path d="M0 0 C1.96453125 0.00193359 1.96453125 0.00193359 3.96875 0.00390625 C9.16663658 0.64214232 9.16663658 0.64214232 11.5 3.4375 C12.45654385 9.07884915 12.13176293 14.69263096 10.1875 20.0625 C7.76856393 23.46692854 6.51015429 25.1007819 2.5 26.4375 C-3.19818352 26.97506448 -6.05134467 26.03879241 -10.5 22.4375 C-12.06529043 19.30691914 -11.76691314 15.99670992 -11.8125 12.5625 C-11.84150391 11.84191406 -11.87050781 11.12132813 -11.90039062 10.37890625 C-11.9405066 7.02767951 -11.74114464 4.82320994 -9.94921875 1.95703125 C-6.53715854 -0.15986097 -3.98977868 -0.05890421 0 0 Z " fill="#42AA5D" transform="translate(131.5,105.5625)"/>
<path d="M0 0 C3.375 1.6875 3.375 1.6875 5 5 C5.87024625 10.85915792 6.50297568 15.90494299 2.9375 20.875 C-0.81314685 23.58823389 -3.03497784 23.60863958 -7.625 23.5 C-9.59339844 23.48453125 -9.59339844 23.48453125 -11.6015625 23.46875 C-15 23 -15 23 -16.8984375 21.71875 C-19.85194834 17.11043521 -19.4952261 11.27671946 -19 6 C-15.34224469 -2.14681865 -7.95825116 -0.74522352 0 0 Z " fill="#F8BF1E" transform="translate(103,151)"/>
<path d="M0 0 C1.1034375 -0.0103125 2.206875 -0.020625 3.34375 -0.03125 C7.24398197 0.62522469 8.87466248 1.54288906 11.5 4.5 C12.70188785 10.43167003 12.51005955 16.40218402 9.875 21.875 C4.40218402 24.51005955 -1.56832997 24.70188785 -7.5 23.5 C-10.58303678 20.80359812 -11.39499303 19.13221439 -12.06640625 15.08984375 C-12.06511719 13.88457031 -12.06382813 12.67929688 -12.0625 11.4375 C-12.08441406 10.22964844 -12.10632813 9.02179688 -12.12890625 7.77734375 C-11.5 4.5 -11.5 4.5 -9.37109375 2.09765625 C-5.9872915 0.2146969 -3.85549763 -0.03603269 0 0 Z " fill="#42AA5E" transform="translate(131.5,72.5)"/>
<path d="M0 0 C2.375 1.4375 2.375 1.4375 4 4 C4.67298561 8.12109164 4.54130175 11.69450754 2.9375 15.5625 C-0.06591067 17.79083695 -2.37886313 17.45264211 -6 17 C-8.10358381 15.45737187 -8.84054159 14.31891683 -10 12 C-10.57395143 4.88300221 -10.57395143 4.88300221 -8.375 1.5 C-5.27859404 -0.45562482 -3.60146865 -0.60024477 0 0 Z " fill="#F7F7F7" transform="translate(102,205)"/>
<path d="M0 0 C2.50806657 2.11205606 3.75114713 3.71764593 4.3828125 6.97265625 C4.57300962 10.36450481 4.24054721 12.61512446 2.4375 15.5 C-0.93424177 17.57491801 -3.11590535 17.56495922 -7 17 C-8.9375 15.5625 -8.9375 15.5625 -10 13 C-10.64213079 8.62548398 -10.78226912 5.23357822 -8.375 1.4375 C-5.25099332 -0.45334615 -3.59011393 -0.67314636 0 0 Z " fill="#F4F4F4" transform="translate(83,205)"/>
<path d="M0 0 C0.99 0 1.98 0 3 0 C3.33 1.98 3.66 3.96 4 6 C5.65 4.02 7.3 2.04 9 0 C9.99 0.33 10.98 0.66 12 1 C10.68 2.65 9.36 4.3 8 6 C8.28875 6.70125 8.5775 7.4025 8.875 8.125 C10.02133588 11.05452503 11.02625654 14.00921653 12 17 C11.34 17 10.68 17 10 17 C9.0234375 15.20963542 8.046875 13.41927083 7.0703125 11.62890625 C6.08589976 9.83381685 6.08589976 9.83381685 4 9 C3.67 11.64 3.34 14.28 3 17 C2.01 17 1.02 17 0 17 C0 11.39 0 5.78 0 0 Z " fill="#636363" transform="translate(134,205)"/>
<path d="M0 0 C2.375 1.4375 2.375 1.4375 4 4 C4.67298561 8.12109164 4.54130175 11.69450754 2.9375 15.5625 C-0.06591067 17.79083695 -2.37886313 17.45264211 -6 17 C-8.10358381 15.45737187 -8.84054159 14.31891683 -10 12 C-10.57395143 4.88300221 -10.57395143 4.88300221 -8.375 1.5 C-5.27859404 -0.45562482 -3.60146865 -0.60024477 0 0 Z M-6.75 3.0625 C-8.67799989 6.05089983 -8.30953037 8.5332598 -8 12 C-7.01 13.485 -7.01 13.485 -6 15 C-3 15.5 -3 15.5 0 15 C2.46324069 11.30513897 2.38991688 9.36706908 2 5 C0.89350331 2.97521537 0.89350331 2.97521537 -1 2 C-4.77135706 1.65401458 -4.77135706 1.65401458 -6.75 3.0625 Z " fill="#474747" transform="translate(102,205)"/>
<path d="M0 0 C2.50806657 2.11205606 3.75114713 3.71764593 4.3828125 6.97265625 C4.57300962 10.36450481 4.24054721 12.61512446 2.4375 15.5 C-0.93424177 17.57491801 -3.11590535 17.56495922 -7 17 C-8.9375 15.5625 -8.9375 15.5625 -10 13 C-10.64213079 8.62548398 -10.78226912 5.23357822 -8.375 1.4375 C-5.25099332 -0.45334615 -3.59011393 -0.67314636 0 0 Z M-6 2 C-8.71232939 6.06849409 -8.30699887 8.16476784 -8 13 C-6.11340125 15.30662599 -6.11340125 15.30662599 -3 15.3125 C-2.01 15.209375 -1.02 15.10625 0 15 C2.46324069 11.30513897 2.38991688 9.36706908 2 5 C0.95625978 2.95548981 0.95625978 2.95548981 -1 2 C-3.54258463 1.49985047 -3.54258463 1.49985047 -6 2 Z " fill="#484848" transform="translate(83,205)"/>
<path d="M0 0 C4.29 0 8.58 0 13 0 C13 0.66 13 1.32 13 2 C11.35 2 9.7 2 8 2 C8 6.95 8 11.9 8 17 C7.34 17 6.68 17 6 17 C6 12.05 6 7.1 6 2 C4.02 2 2.04 2 0 2 C0 1.34 0 0.68 0 0 Z " fill="#4E4E4E" transform="translate(56,205)"/>
<path d="M0 0 C3.96 0 7.92 0 12 0 C12 0.66 12 1.32 12 2 C10.35 2 8.7 2 7 2 C7 6.95 7 11.9 7 17 C6.34 17 5.68 17 5 17 C5 12.05 5 7.1 5 2 C3.35 2 1.7 2 0 2 C0 1.34 0 0.68 0 0 Z " fill="#3E3E3E" transform="translate(159,205)"/>
<path d="M0 0 C0.99 0 1.98 0 3 0 C3 5.61 3 11.22 3 17 C2.01 17 1.02 17 0 17 C0 11.39 0 5.78 0 0 Z " fill="#6E6E6E" transform="translate(151,205)"/>
<path d="M0 0 C0.66 0 1.32 0 2 0 C2 4.95 2 9.9 2 15 C4.64 15 7.28 15 10 15 C10 15.66 10 16.32 10 17 C6.7 17 3.4 17 0 17 C0 11.39 0 5.78 0 0 Z " fill="#4B4B4B" transform="translate(112,205)"/>
<path d="M0 0 C0.66 0 1.32 0 2 0 C2.16873478 1.43725871 2.33490737 2.87481838 2.5 4.3125 C2.5928125 5.11300781 2.685625 5.91351563 2.78125 6.73828125 C3 9 3 9 3 12 C0.89366282 10.29171079 0.06198392 9.47851584 -0.29296875 6.73828125 C-0.25816406 5.93777344 -0.22335938 5.13726562 -0.1875 4.3125 C-0.16042969 3.50425781 -0.13335937 2.69601563 -0.10546875 1.86328125 C-0.07066406 1.24839844 -0.03585938 0.63351563 0 0 Z " fill="#424242" transform="translate(73,209)"/>
<path d="M0 0 C4.42679007 1.47559669 4.91432696 3.90057368 7 8 C7 8.66 7 9.32 7 10 C6.34 10 5.68 10 5 10 C3.35 6.7 1.7 3.4 0 0 Z " fill="#464646" transform="translate(139,212)"/>
</svg>
